<?xml version="1.0" ?><svg enable-background="new 0 0 504 504" id="Layer_1" version="1.1" viewBox="0 0 504 504" xml:space="preserve" xmlns="http://www.w3.org/2000/svg" xmlns:xlink="http://www.w3.org/1999/xlink"><path d="M459.9,256.1c-9.2,58.5-27.1,75.6-58.8,114.9c-31.7,33.3-77.3,88.9-141.9,85.8  c-58.5-9.2-75.6-27.1-114.9-58.8c-33.3-31.7-88.9-77.3-85.8-141.9c9.2-58.5,27.1-75.6,58.8-114.9c31.7-33.3,77.3-88.9,141.9-85.8  c58.5,9.2,75.6,27.1,114.9,58.8C407.4,145.9,462.9,191.5,459.9,256.1z" fill="#3765AF"/><g><path d="M146.6,191.2h225.1c14.2,0,25.8,11.5,25.8,25.8v85.9c0,14.2-11.5,25.8-25.8,25.8h-80.7l11.1,27.1   l-48.7-27.1H146.7c-14.2,0-25.8-11.5-25.8-25.8V217C120.8,202.8,132.3,191.2,146.6,191.2z" fill="#FFFFFF"/><path d="M134.7,214.6c1.6-2.1,4-3.3,7.1-3.5c5.8-0.5,9,2.3,9.8,8.1c3.5,23.6,7.3,43.6,11.4,60l24.8-47.1   c2.3-4.3,5.1-6.6,8.5-6.8c5-0.3,8,2.8,9.3,9.5c2.8,15,6.4,27.8,10.7,38.7c2.9-28.7,7.9-49.4,14.9-62.2c1.7-3.2,4.2-4.7,7.5-5   c2.6-0.2,5,0.6,7.1,2.3c2.1,1.7,3.3,3.8,3.5,6.4c0.1,2-0.2,3.7-1.1,5.4c-4.4,8.1-8,21.8-11,40.8c-2.8,18.4-3.8,32.8-3.2,43.1   c0.2,2.8-0.2,5.3-1.4,7.5c-1.4,2.5-3.4,3.8-6,4.1c-2.9,0.2-6-1.1-8.9-4.2c-10.5-10.7-18.9-26.8-25-48.2   c-7.3,14.5-12.8,25.3-16.3,32.6c-6.7,12.8-12.3,19.3-17.1,19.7c-3.1,0.2-5.7-2.4-7.9-7.8c-5.8-14.8-12-43.4-18.7-85.8   C132.6,219.2,133.1,216.6,134.7,214.6z" fill="#3765AF"/><path d="M377.8,232.3c-4.1-7.1-10.1-11.4-18.1-13.1c-2.1-0.5-4.2-0.7-6.1-0.7c-10.9,0-19.7,5.7-26.6,17   c-5.9,9.6-8.8,20.2-8.8,31.9c0,8.7,1.8,16.2,5.4,22.4c4.1,7.1,10.1,11.4,18.1,13.1c2.1,0.5,4.2,0.7,6.1,0.7c11,0,19.8-5.7,26.6-17   c5.9-9.7,8.8-20.3,8.8-32C383.2,245.8,381.4,238.4,377.8,232.3L377.8,232.3z M363.5,263.7c-1.6,7.5-4.4,13-8.6,16.7   c-3.3,2.9-6.3,4.2-9.2,3.6c-2.7-0.6-5-2.9-6.7-7.3c-1.4-3.5-2-7-2-10.3c0-2.8,0.2-5.7,0.8-8.3c1-4.6,2.9-9.2,6-13.5   c3.7-5.5,7.7-7.8,11.8-7c2.7,0.6,5,2.9,6.7,7.3c1.4,3.5,2,7,2,10.3C364.3,258.2,364,261.1,363.5,263.7L363.5,263.7z" fill="#3765AF"/><path d="M306.9,232.3c-4.1-7.1-10.2-11.4-18.1-13.1c-2.1-0.5-4.2-0.7-6.1-0.7c-10.9,0-19.7,5.7-26.6,17   c-5.9,9.6-8.8,20.2-8.8,31.9c0,8.7,1.8,16.2,5.4,22.4c4.1,7.1,10.1,11.4,18.1,13.1c2.1,0.5,4.2,0.7,6.1,0.7c11,0,19.8-5.7,26.6-17   c5.9-9.7,8.8-20.3,8.8-32C312.3,245.8,310.5,238.4,306.9,232.3L306.9,232.3z M292.6,263.7c-1.6,7.5-4.4,13-8.6,16.7   c-3.3,2.9-6.3,4.2-9.2,3.6c-2.7-0.6-5-2.9-6.7-7.3c-1.4-3.5-2-7-2-10.3c0-2.8,0.2-5.7,0.8-8.3c1-4.6,2.9-9.2,6-13.5   c3.7-5.5,7.7-7.8,11.8-7c2.7,0.6,5,2.9,6.7,7.3c1.4,3.5,2,7,2,10.3C293.4,258.2,293.2,261.1,292.6,263.7L292.6,263.7z" fill="#3765AF"/></g></svg>