<?xml version="1.0" encoding="utf-8"?>
<!-- Generator: Adobe Illustrator 19.0.1, SVG Export Plug-In . SVG Version: 6.00 Build 0)  -->
<svg version="1.1" id="vegetable_1_" xmlns="http://www.w3.org/2000/svg" xmlns:xlink="http://www.w3.org/1999/xlink" x="0px"
	 y="0px" viewBox="0 0 128 128" style="enable-background:new 0 0 128 128;" xml:space="preserve">
<style type="text/css">
	.st0{display:none;}
	.st1{display:inline;}
	.st2{fill:#232323;}
	.st3{display:inline;fill-rule:evenodd;clip-rule:evenodd;fill:#232323;}
	.st4{display:inline;fill:#232323;}
	.st5{fill-rule:evenodd;clip-rule:evenodd;fill:#232323;}
</style>
<g id="row3_1_">
	<g id="corn_1_" class="st0">
		<g id="lines" class="st1">
			<g>
				<path class="st2" d="M80.3,34.2c0-17.6-10.5-32.4-10.5-32.4L66.3,0c0,0,1.7,2.5,3.8,6.5c-0.6,0.1-1.3,0.2-2.2,0.3
					C67,2.6,66.3,0,66.3,0H64c0,0,0.7,2.7,1.6,7c-0.5,0-1,0-1.6,0c-0.6,0-1.2,0-1.7,0C63.3,2.7,64,0,64,0h-2.3c0,0-0.7,2.6-1.6,6.8
					c-1-0.1-1.8-0.2-2.2-0.3C60,2.5,61.7,0,61.7,0l-3.2,1.3c0,0-10.8,15.4-10.8,32.9c0,6.6,1.1,13.3,2.5,19.3c-0.1,0-0.1,0-0.1,0
					v2.3c0,0,0.3,0.1,0.7,0.2c1,3.8,2,7.2,3,10c-2.2-0.5-3.8-0.9-3.8-0.9v2.3c0,0,2,0.5,4.6,1.1c1.3,3.7,2.3,5.9,2.3,5.9h2.3
					c0,0-0.9-2-2.2-5.4c1.1,0.2,2.3,0.4,3.5,0.5c0.6,3.1,1,4.9,1,4.9H64c0,0-0.4-1.7-0.9-4.7c0.4,0,0.8,0,1.2,0c0.2,0,0.5,0,0.7,0
					c-0.6,2.9-0.9,4.7-0.9,4.7h2.3c0,0,0.4-1.8,1-4.8c1.2-0.1,2.4-0.3,3.5-0.5c-1.2,3.3-2.1,5.3-2.1,5.3H71c0,0,1-2.2,2.3-5.8
					c2.7-0.6,4.7-1.2,4.7-1.2v-2.3c0,0-1.5,0.4-3.8,0.9c1-2.8,2-6.3,3-10c0.5-0.1,0.7-0.2,0.7-0.2v-2.3c0,0-0.1,0-0.1,0
					C79.2,47.6,80.3,40.8,80.3,34.2z M78,34.9c0,2.4-0.2,4.7-0.4,7.1c-1,0.3-3.8,1-6.8,1.5c0.1-2.3,0.3-4.7,0.3-7
					C74.7,35.9,77.9,34.9,78,34.9z M71,34.2c0-2.3-0.1-4.7-0.2-6.9c2.7-0.5,5.2-1.1,6.4-1.4c0.4,2.2,0.7,4.5,0.8,6.8
					C77.7,32.7,74.6,33.5,71,34.2z M70.6,24.9c-0.2-2.4-0.4-4.6-0.7-6.8c2.9-0.5,4.9-1.1,4.9-1.1l0,0c0.7,2.1,1.4,4.3,1.9,6.6
					C75.3,24,73.1,24.5,70.6,24.9z M68.3,25.3c-1.4,0.2-2.9,0.3-4.2,0.3c-1.4,0-2.9-0.1-4.3-0.3c0.2-2.4,0.4-4.7,0.7-6.9
					c1.2,0.1,2.5,0.2,3.8,0.2c1.2,0,2.3-0.1,3.4-0.2C67.9,20.6,68.1,22.9,68.3,25.3z M64.2,27.9c1.3,0,2.8-0.1,4.2-0.3
					c0.1,2.2,0.2,4.4,0.2,6.6c0,0.1,0,0.2,0,0.3c-1.6,0.2-3.2,0.4-4.6,0.4c-1.5,0-3.1-0.1-4.7-0.4c0-0.1,0-0.2,0-0.3
					c0-2.2,0.1-4.5,0.2-6.7C61.1,27.8,62.8,27.9,64.2,27.9z M57,34.2c-3.7-0.7-6.7-1.5-6.9-1.6c0.1-2.3,0.4-4.6,0.8-6.8
					c1.2,0.3,3.7,0.9,6.4,1.4C57.1,29.5,57,31.8,57,34.2z M57,36.5c0,2.4,0.1,4.7,0.3,7c-3.1-0.5-5.8-1.2-6.8-1.5
					c-0.3-2.4-0.4-4.7-0.4-7.1C50.1,34.9,53.3,35.8,57,36.5z M59.4,36.9c1.7,0.2,3.3,0.4,4.8,0.4c1.4,0,2.9-0.1,4.4-0.3
					c0,2.3-0.2,4.7-0.3,7c-1.5,0.2-2.9,0.3-4.3,0.3c-1.4,0-2.9-0.1-4.4-0.3C59.5,41.6,59.4,39.2,59.4,36.9z M64.2,46.6
					c1.2,0,2.6-0.1,3.9-0.3c-0.3,3.3-0.6,6.4-1,9.4c-1.1,0.1-2.1,0.2-3.1,0.2c-1,0-2.1-0.1-3.2-0.2c-0.4-3-0.7-6.2-1-9.4
					C61.3,46.4,62.8,46.6,64.2,46.6z M70.5,45.9c2.9-0.5,5.5-1.2,6.7-1.5c-0.5,3.4-1.1,6.7-1.9,9.8c-1.6,0.4-3.6,0.8-5.8,1.2
					C69.9,52.4,70.2,49.2,70.5,45.9z M71.2,8.5c0.9,1.9,1.9,4.1,2.8,6.5c-0.8,0.2-2.4,0.6-4.5,0.9c-0.4-2.5-0.8-4.8-1.2-6.9
					C69.5,8.9,70.4,8.7,71.2,8.5z M64.2,9.3c0.7,0,1.3,0,1.9-0.1c0.4,2.1,0.8,4.4,1.2,6.9c-1,0.1-2.1,0.1-3.2,0.1
					c-1.2,0-2.3-0.1-3.3-0.2c0.4-2.5,0.8-4.8,1.2-6.9C62.6,9.3,63.4,9.3,64.2,9.3z M59.6,9c-0.4,2-0.8,4.3-1.1,6.7
					c-2.7-0.5-4.3-1.3-4.3-1.3l-1,2.7c0,0,2,0.6,4.9,1c-0.3,2.2-0.5,4.4-0.7,6.8c-2.5-0.4-4.7-1-6.1-1.3c1.3-5.8,3.5-11,5.5-15.1
					C57.5,8.7,58.4,8.9,59.6,9z M50.8,44.4c1.2,0.3,3.8,1,6.7,1.5c0.3,3.3,0.6,6.5,1,9.5c-2.2-0.3-4.3-0.8-5.8-1.2
					C51.9,51.1,51.3,47.8,50.8,44.4z M56.3,66.6c-1-2.8-2-6.2-3-10c1.5,0.4,3.5,0.7,5.5,1c0.5,3.6,1,6.9,1.5,9.5
					C58.9,67.1,57.6,66.9,56.3,66.6z M64.1,67.5c-0.5,0-1,0-1.4,0c-0.5-2.6-1-5.8-1.5-9.4c1.1,0.1,2.1,0.2,3.1,0.2
					c0.8,0,1.7-0.1,2.6-0.1c-0.5,3.6-1,6.8-1.5,9.4C64.9,67.5,64.5,67.5,64.1,67.5z M71.7,66.6c-1.3,0.2-2.6,0.5-4,0.6
					c0.5-2.6,1-5.9,1.5-9.5c2-0.3,4-0.7,5.5-1.1C73.7,60.4,72.7,63.8,71.7,66.6z"/>
			</g>
		</g>
		<path id="front" class="st3" d="M66.3,79.1c0,0,15.5-59.2,19.9-43.5c2.1,7.7,3.4,16.5,3.4,26c0,20.3-5.6,37.9-13.9,46.6
			c0,6.5-0.1,19.8-0.1,19.8H52.4c0,0,0.2-11.4,0.2-19.5c-8.4-8.6-14.2-26.3-14.2-46.9c0-9.5,1.2-18.4,3.4-26
			C46.2,19.9,66.3,79.1,66.3,79.1z"/>
	</g>
	<g id="broccoli_1_" class="st0">
		<path class="st4" d="M121.3,51.5c-2.2-4.5-5.9-6.8-8.7-7.9c0.3-5,0.2-13.3-2.5-17.8c-3.7-6.1-9.9-7.9-13.8-8.5
			c-1.4-4.5-5.2-12-15.5-16.1c-7.5-3-13.7,0.4-17.4,4c-4-2.5-10.8-5.9-17.4-5.2c-7.1,0.8-12.7,7.3-15,10.4
			C25.1,11.7,10,15.8,6.6,24.9c-2,5.5-1.9,10.7,0.3,15.4c3.4,7.2,10.9,11.3,14.7,13c1.5,6.2,5.2,18.7,10.9,22.3l2.9,21.7l-9.3,23.5
			l18.3,7.2l9.2-23.5L70.1,91c1.3,0.5,2.5,0.7,3.6,0.7c0.2,0,0.3,0,0.5,0c9-0.6,15.5-4.7,18.7-7.2c2.7,0.9,7.1,1.9,11.7,0.7
			c7.6-2,14.5-9.2,16.8-15.1C122.7,67,123.9,56.8,121.3,51.5z M41.1,90.5l-2.6-1l2.4-11.4c1.7,0.1,3.3-0.1,4.9-0.4L41.1,90.5z
			 M56.8,96.7l-2.6-1l4.9-12.5c1.1,1.1,2.3,2.2,3.5,3.2L56.8,96.7z M113.7,66.9c-1.5,3.8-6.6,8.9-11.1,10c-4.1,1.1-8.4-1.1-8.4-1.1
			l-2.8-1.5l-2.2,2.3c-0.1,0.1-5.9,5.9-15.4,6.6c0,0,0,0,0,0c-2.5,0-10.6-7.4-16.8-15.5l-2.3-2.9l-3.2,1.9
			c-2.2,1.3-9.7,4.6-14.3,1.7c-2.3-1.5-5.9-11.3-7.6-19.2L28.9,47l-2.2-0.8c-0.1,0-9.1-3.2-12.1-9.5c-1.3-2.7-1.3-5.6-0.1-8.9
			c1.6-4.3,12.7-8.2,19.7-9.5l1.8-0.3l1-1.5c1.6-2.5,6.1-7.7,9.9-8.1c5.4-0.6,12.4,4,14.7,5.8l3.8,3l2.5-4.1
			c0.1-0.2,2.8-4.6,7.2-4.6c0.8,0,1.7,0.2,2.7,0.5c9.9,3.9,10.9,12.3,10.9,12.6l0.4,4.1l4.1-0.2c0.1,0,6.8-0.3,9.8,4.6
			c1.6,2.6,1.6,11.2,1.1,16.1l-0.4,4l4,0.6c0.2,0,4.3,0.6,6.2,4.4C114.9,57.6,114.4,65.1,113.7,66.9z"/>
		<path id="shade_11_" class="st3" d="M92.8,21.3c0,0,9.3-0.6,13.6,6.6c3.1,5.1,1.7,18.8,1.7,18.8s6.5,0.8,9.4,6.7
			c1.8,3.8,1.1,12.6,0.1,15.1c-2,5-8.1,11.1-14,12.6c-5.8,1.5-11.5-1.5-11.5-1.5s-6.8,7.1-18.2,7.9C67.1,88,53.5,70.4,53.5,70.4
			s29.6,5.2,38.5-5.9C102.6,51.3,92.8,21.3,92.8,21.3z"/>
	</g>
	<g id="pea_1_" class="st0">
		<g id="_x32__1_" class="st1">
			<g>
				<path class="st2" d="M86.3,1.2C75.8-5.5,49.3,17,27.1,51.5C4.9,86.1-4.5,119.5,6,126.3c10.5,6.7,37-15.8,59.1-50.3
					C87.3,41.4,96.8,7.9,86.3,1.2z M60.6,73C40,105.1,16.8,126.9,8.8,121.8c-8-5.2,2.2-35.3,22.8-67.4C52.2,22.3,75.4,0.5,83.4,5.7
					C91.4,10.8,81.2,41,60.6,73z"/>
			</g>
		</g>
		<g id="_x31__1_" class="st1">
			<g>
				<path class="st2" d="M25.2,90c-5-3.2-11.5-1.7-14.7,3.2c-3.2,4.9-1.7,11.5,3.2,14.7c5,3.2,11.5,1.7,14.7-3.2
					C31.6,99.7,30.2,93.1,25.2,90z M16,107.8c-0.7,0.3-2.3-1.5-3.6-4.1c-1.3-2.6-1.9-5-1.2-5.3c0.7-0.3,2.3,1.5,3.6,4.1
					C16.1,105.1,16.7,107.4,16,107.8z M70.8,22.8c-4.9-3.2-11.5-1.7-14.7,3.2c-3.2,4.9-1.7,11.5,3.2,14.7c4.9,3.2,11.5,1.7,14.7-3.2
					C77.2,32.5,75.7,26,70.8,22.8z M64.5,36.2c-0.6,0.3-2.2-1.5-3.6-4.1c-1.3-2.6-1.9-5-1.2-5.3c0.7-0.3,2.3,1.5,3.6,4.1
					C64.6,33.4,65.2,35.8,64.5,36.2z M54.2,43.7c-4.9-3.2-11.5-1.7-14.7,3.2c-3.2,4.9-1.7,11.5,3.2,14.7c4.9,3.2,11.5,1.7,14.7-3.2
					C60.6,53.4,59.2,46.9,54.2,43.7z M46.5,59.3c-0.7,0.3-2.3-1.5-3.6-4.1c-1.3-2.6-1.9-5-1.2-5.3c0.7-0.3,2.3,1.5,3.6,4.1
					C46.6,56.6,47.2,59,46.5,59.3z M44.4,68.9c-4.9-3.2-11.5-1.7-14.7,3.2c-3.2,4.9-1.7,11.5,3.2,14.7c4.9,3.2,11.5,1.7,14.7-3.2
					C50.7,78.6,49.3,72.1,44.4,68.9z M36.6,84.5c-0.6,0.3-2.3-1.5-3.6-4.1c-1.3-2.6-1.9-5-1.2-5.3c0.7-0.3,2.3,1.5,3.6,4.1
					C36.7,81.8,37.3,84.2,36.6,84.5z"/>
			</g>
		</g>
		<g id="front_1_" class="st1">
			<g>
				<path class="st2" d="M124.4,44.3c-0.2-0.9-44.3,2.5-69.3,31.2c-25,28.8-53.4,43.1-49,52.4c0.6,1.2,46.1-5.8,77-28
					C112.3,78.9,132.9,50.3,124.4,44.3z M53,110.1c-15.6,8.2-28.7,13.8-29.4,12.5c-0.7-1.3,11.4-9,26.9-17.2
					C66,97.2,110.7,64,110.7,64S68.5,101.9,53,110.1z"/>
			</g>
		</g>
	</g>
	<g id="pumpkin_1_" class="st0">
		<path id="shade_3_" class="st3" d="M89.4,33.8c15.4-0.2,38.6,18.7,38.6,44.7c0,26-24.3,42.9-39.5,46.1c0,0,27.4-15.9,27.4-47.3
			C115.9,46.5,89.4,33.8,89.4,33.8z"/>
		<g id="border" class="st1">
			<g>
				<path class="st2" d="M85,31.6c-0.2-0.1-0.3-0.1-0.5-0.2c0.1,0.1,0.1,0.1,0.2,0.2c-1.3-0.1-2.5-0.2-3.8-0.2h-8.4c0,0,0,0-0.1,0
					c-0.1-0.2-4.8-7.3-4.8-12.1c0-4,9.7-9.7,9.7-9.7s-3-7.3-4.8-7.3c-3.3,0-14.5,7-14.5,15.7c0,8.5-4.6,13.1-4.8,13.3c0,0,0,0-0.1,0
					h-6c-1.5,0-2.9,0.1-4.4,0.2c0.2-0.2,0.3-0.3,0.5-0.5c-0.4,0.2-0.8,0.3-1.2,0.5C18.4,34.2,0,54.2,0,78.5
					c0,26,21.1,47.1,47.1,47.1h33.8c26,0,47.1-21.1,47.1-47.1C128,53.9,109.1,33.7,85,31.6z M4.8,78.5c0-17.7,10.9-32.9,26.4-39.2
					c-8.7,8.8-14.3,22.6-14.3,38c0,17.9,7.6,33.6,18.8,41.9C17.9,114.2,4.8,97.9,4.8,78.5z M39.9,120.1C7.8,84,21.9,54.2,36.9,37.5
					c3-0.7,6-1.1,9.2-1.2c-6.3,8.1-9.9,24.8-9.9,41c0,18.9,5.5,36.1,13.3,43.5h-2.4C44.7,120.8,42.3,120.5,39.9,120.1z M51.5,120.8
					c-16.9-32.2-14.4-65-1.8-84.5h26.3c12.6,19.6,15,52.3-1.8,84.5H51.5z M80.9,120.8h-4.8c7.8-7.3,13.3-24.6,13.3-43.5
					c0-16.3-3.6-33-9.9-41.1h1.5c3.3,0,6.6,0.4,9.7,1.1c15.3,16.6,29.7,46.4-2.9,82.9C85.4,120.6,83.2,120.8,80.9,120.8z
					 M91.8,119.3c11.5-8.3,19.3-24,19.3-42c0-15.6-5.8-29.5-14.9-38.3c15.8,6.1,27,21.5,27,39.4C123.2,98.1,109.9,114.5,91.8,119.3z
					"/>
			</g>
		</g>
	</g>
	<g id="cucumber_1_" class="st0">
		<g id="body" class="st1">
			<path class="st2" d="M25.7,67.2c-0.2-2.4-1.2-4.5-2.2-4.5c-0.9,0-1.5,2-1.2,4.5c0.3,2.3,1.3,4.2,2.2,4.2
				C25.4,71.4,26,69.5,25.7,67.2z M21.1,70.6c-0.3-2.3-1.3-4.3-2.3-4.3s-1.4,1.9-1.1,4.3c0.4,2.3,1.3,4,2.3,4
				C20.9,74.6,21.3,72.8,21.1,70.6z M23.7,78.4c-0.2-2.1-1.2-3.8-2.1-3.8c-0.9,0-1.4,1.7-1.1,3.8c0.3,2,1.2,3.6,2.1,3.6
				C23.4,82.1,23.9,80.5,23.7,78.4z M25.7,67.2c-0.2-2.4-1.2-4.5-2.2-4.5c-0.9,0-1.5,2-1.2,4.5c0.3,2.3,1.3,4.2,2.2,4.2
				C25.4,71.4,26,69.5,25.7,67.2z M28.7,81.4c-0.2-2-1-3.7-1.9-3.7c-0.9,0-1.4,1.7-1.2,3.7c0.2,1.9,1.1,3.5,1.9,3.5
				S28.9,83.3,28.7,81.4z M31,68.9c-0.2-2.4-1.1-4.3-2-4.3c-1,0-1.6,2-1.4,4.3c0.2,2.3,1.1,4.1,2,4.1C30.5,73,31.1,71.2,31,68.9z
				 M33.1,76.9C33,74.8,32.2,73,31.3,73c-0.9,0-1.5,1.8-1.3,3.9c0.2,2.1,1,3.7,1.8,3.7C32.6,80.6,33.2,79,33.1,76.9z M21.1,70.6
				c-0.3-2.3-1.3-4.3-2.3-4.3s-1.4,1.9-1.1,4.3c0.4,2.3,1.3,4,2.3,4C20.9,74.6,21.3,72.8,21.1,70.6z M23.7,78.4
				c-0.2-2.1-1.2-3.8-2.1-3.8c-0.9,0-1.4,1.7-1.1,3.8c0.3,2,1.2,3.6,2.1,3.6C23.4,82.1,23.9,80.5,23.7,78.4z M25.7,67.2
				c-0.2-2.4-1.2-4.5-2.2-4.5c-0.9,0-1.5,2-1.2,4.5c0.3,2.3,1.3,4.2,2.2,4.2C25.4,71.4,26,69.5,25.7,67.2z M28.7,81.4
				c-0.2-2-1-3.7-1.9-3.7c-0.9,0-1.4,1.7-1.2,3.7c0.2,1.9,1.1,3.5,1.9,3.5S28.9,83.3,28.7,81.4z M31,68.9c-0.2-2.4-1.1-4.3-2-4.3
				c-1,0-1.6,2-1.4,4.3c0.2,2.3,1.1,4.1,2,4.1C30.5,73,31.1,71.2,31,68.9z M33.1,76.9C33,74.8,32.2,73,31.3,73
				c-0.9,0-1.5,1.8-1.3,3.9c0.2,2.1,1,3.7,1.8,3.7C32.6,80.6,33.2,79,33.1,76.9z M126.4,31c-0.9-1.8-2.1-3.3-3.6-4.6l-77,30.8
				c0.9,1.6,1.8,3.4,2.5,5.2c0.6,1.6,1.1,3.4,1.5,5.3l77.3-34.9C126.9,32.2,126.7,31.6,126.4,31z M31.3,73c-0.9,0-1.5,1.8-1.3,3.9
				c0.2,2.1,1,3.7,1.8,3.7c0.9,0,1.5-1.6,1.4-3.7C33,74.8,32.2,73,31.3,73z M31,68.9c-0.2-2.4-1.1-4.3-2-4.3c-1,0-1.6,2-1.4,4.3
				c0.2,2.3,1.1,4.1,2,4.1C30.5,73,31.1,71.2,31,68.9z M26.8,77.7c-0.9,0-1.4,1.7-1.2,3.7c0.2,1.9,1.1,3.5,1.9,3.5s1.4-1.5,1.2-3.5
				C28.5,79.3,27.7,77.7,26.8,77.7z M25.7,67.2c-0.2-2.4-1.2-4.5-2.2-4.5c-0.9,0-1.5,2-1.2,4.5c0.3,2.3,1.3,4.2,2.2,4.2
				C25.4,71.4,26,69.5,25.7,67.2z M21.6,74.6c-0.9,0-1.4,1.7-1.1,3.8c0.3,2,1.2,3.6,2.1,3.6c0.9,0,1.3-1.6,1.1-3.6
				C23.4,76.3,22.5,74.6,21.6,74.6z M21.1,70.6c-0.3-2.3-1.3-4.3-2.3-4.3s-1.4,1.9-1.1,4.3c0.4,2.3,1.3,4,2.3,4
				C20.9,74.6,21.3,72.8,21.1,70.6z M127.8,35.5L50.3,70.7c0.4,3.6,0.4,7.4,0,11.1l76.3-36.7C127.8,41.8,128.3,38.6,127.8,35.5z
				 M38.4,101.8c-12.3,4.9-26.7-4.3-33-19.9c-6.2-15.6-1.3-32.2,10.9-37c4.1-1.6,8.3-1.9,12.4-1.1l69.6-22.8
				c-30.7,1.3-74.9,18.5-80.9,20c0.3-0.1,0.6-0.1,0.8-0.1C5.3,44.1-2,56.4,0.5,73.9c2.6,18.9,19.7,34.9,34.6,32.8
				c3.2-0.4,6-1.6,8.4-3.3c6.6-1.5,66.6-28.4,81.3-54.5l-75.2,37C47.9,93.2,44.3,99.5,38.4,101.8z M107.6,21.2l-74.5,24
				c4.2,1.9,8,5.1,11.1,9.5l75.9-30.1C116.8,22.8,112.5,21.7,107.6,21.2z M33.1,76.9C33,74.8,32.2,73,31.3,73
				c-0.9,0-1.5,1.8-1.3,3.9c0.2,2.1,1,3.7,1.8,3.7C32.6,80.6,33.2,79,33.1,76.9z M31,68.9c-0.2-2.4-1.1-4.3-2-4.3
				c-1,0-1.6,2-1.4,4.3c0.2,2.3,1.1,4.1,2,4.1C30.5,73,31.1,71.2,31,68.9z M28.7,81.4c-0.2-2-1-3.7-1.9-3.7c-0.9,0-1.4,1.7-1.2,3.7
				c0.2,1.9,1.1,3.5,1.9,3.5S28.9,83.3,28.7,81.4z M25.7,67.2c-0.2-2.4-1.2-4.5-2.2-4.5c-0.9,0-1.5,2-1.2,4.5
				c0.3,2.3,1.3,4.2,2.2,4.2C25.4,71.4,26,69.5,25.7,67.2z M23.7,78.4c-0.2-2.1-1.2-3.8-2.1-3.8c-0.9,0-1.4,1.7-1.1,3.8
				c0.3,2,1.2,3.6,2.1,3.6C23.4,82.1,23.9,80.5,23.7,78.4z M21.1,70.6c-0.3-2.3-1.3-4.3-2.3-4.3s-1.4,1.9-1.1,4.3
				c0.4,2.3,1.3,4,2.3,4C20.9,74.6,21.3,72.8,21.1,70.6z M21.1,70.6c-0.3-2.3-1.3-4.3-2.3-4.3s-1.4,1.9-1.1,4.3c0.4,2.3,1.3,4,2.3,4
				C20.9,74.6,21.3,72.8,21.1,70.6z M23.7,78.4c-0.2-2.1-1.2-3.8-2.1-3.8c-0.9,0-1.4,1.7-1.1,3.8c0.3,2,1.2,3.6,2.1,3.6
				C23.4,82.1,23.9,80.5,23.7,78.4z M25.7,67.2c-0.2-2.4-1.2-4.5-2.2-4.5c-0.9,0-1.5,2-1.2,4.5c0.3,2.3,1.3,4.2,2.2,4.2
				C25.4,71.4,26,69.5,25.7,67.2z M28.7,81.4c-0.2-2-1-3.7-1.9-3.7c-0.9,0-1.4,1.7-1.2,3.7c0.2,1.9,1.1,3.5,1.9,3.5
				S28.9,83.3,28.7,81.4z M31,68.9c-0.2-2.4-1.1-4.3-2-4.3c-1,0-1.6,2-1.4,4.3c0.2,2.3,1.1,4.1,2,4.1C30.5,73,31.1,71.2,31,68.9z
				 M33.1,76.9C33,74.8,32.2,73,31.3,73c-0.9,0-1.5,1.8-1.3,3.9c0.2,2.1,1,3.7,1.8,3.7C32.6,80.6,33.2,79,33.1,76.9z M23.7,78.4
				c-0.2-2.1-1.2-3.8-2.1-3.8c-0.9,0-1.4,1.7-1.1,3.8c0.3,2,1.2,3.6,2.1,3.6C23.4,82.1,23.9,80.5,23.7,78.4z M28.7,81.4
				c-0.2-2-1-3.7-1.9-3.7c-0.9,0-1.4,1.7-1.2,3.7c0.2,1.9,1.1,3.5,1.9,3.5S28.9,83.3,28.7,81.4z M33.1,76.9C33,74.8,32.2,73,31.3,73
				c-0.9,0-1.5,1.8-1.3,3.9c0.2,2.1,1,3.7,1.8,3.7C32.6,80.6,33.2,79,33.1,76.9z M31,68.9c-0.2-2.4-1.1-4.3-2-4.3
				c-1,0-1.6,2-1.4,4.3c0.2,2.3,1.1,4.1,2,4.1C30.5,73,31.1,71.2,31,68.9z M21.1,70.6c-0.3-2.3-1.3-4.3-2.3-4.3s-1.4,1.9-1.1,4.3
				c0.4,2.3,1.3,4,2.3,4C20.9,74.6,21.3,72.8,21.1,70.6z"/>
		</g>
	</g>
</g>
<g id="row2_1_">
	<g id="mushroom_1_" class="st0">
		<path id="shade_12_" class="st3" d="M66.8,14.2c0,0,59.3,6.8,59.3,45.9c0,16.2-7,26.2-16.6,34.1c3.1-2.6,7.9-29.8-2.4-50
			C93.8,17.9,61.6,12.1,34.7,28.4C5.5,46.2,14.2,89.1,14.2,89.1S-9.2,66.3,8.4,37C21.6,15.1,66.8,14.2,66.8,14.2z"/>
		<g id="border_1_" class="st1">
			<g>
				<path class="st2" d="M64,11.4c-34,0-64,22.3-64,49.9C0,74,6.4,85.6,16.6,94.4C31,107,28.2,89.1,32,64.9c1.2-0.3,4.6-0.7,5.9,5.7
					c1.8,9-2.7,25.5,3.9,38.1c5.9,11.2,39,11.1,44.3-4.9c4.6-14.1-1.7-42.2,5-38.5c13,7.1,1.3,40.2,11.1,35.6
					c15.4-9.1,25.7-23.5,25.7-39.7C128,33.7,98,11.4,64,11.4z M102.8,94.9c1.2-6.5,0.8-29.5-8.6-33.3c-18.5-7.5-8.4,22.1-12.2,38.8
					c-3.2,13.8-34.5,13.5-37.3,3.8c-2.5-8.4-1.5-24.8-2.8-34.6c-1.2-8.6-6.3-10.1-9.9-9.6c-8.4,1.3-6.8,34.3-8.5,33.6
					C12.2,85.5,4.9,74,4.9,61.3c0-24.9,27.8-45.1,59.1-45.1c31.3,0,59.1,20.2,59.1,45.1C123.1,74.6,115.1,86.6,102.8,94.9z"/>
			</g>
		</g>
	</g>
	<g id="pepper_1_" class="st0">
		<path id="shade_4_" class="st3" d="M84.4,30.2c16.6,0.9,30.1,5,30.4,25.3c0.3,20.3-11.6,37.1-11.6,37.1c0,17.3-7.9,33.6-23.8,31.2
			c7.6,1.2,6.4-23.3,12.6-45.5C99.6,50.8,84.4,30.2,84.4,30.2z"/>
		<path class="st4" d="M56.7,38.5c2.4,1,4.9,1.8,7.4,1.8C64.1,40.3,60.7,39.5,56.7,38.5z M56.7,38.5c2.4,1,4.9,1.8,7.4,1.8
			C64.1,40.3,60.7,39.5,56.7,38.5z"/>
		<path class="st4" d="M97.3,28.9c-1.1-0.4-2.3-0.6-3.6-0.6c2.7-3.6,5.6-10.3,5.8-10.8l-18,11l5.3-8.5l-15,7.6c0,0,1.8-8.2,8.6-16.8
			c5.4-7,3.9-4.1,6-7.1c2-3.1-5.3-3.7-9-3.7C74.2,0.1,76-1.6,64.9,15.5c-4.7,7.2-4.7,11.7-4.7,11.8c0,0-5.1-4.7-7.2-6
			c-2-1.2-3.5-4-3.5-4l-1.6,12.4c0,0-2.5-3.2-4-4.6c-2.4-2.2-7.3-7.3-7.6-7.6c0.2,0.5,1.8,5.4,4.2,10c-1.1-0.1-2.2,0-3.2,0.2
			C21.6,31.8,7.7,48.7,11,60.5c3.4,11.8,10.1,32.9,10.1,32.9c0,19.2,7,31.4,20.1,33.9c6.9,1.3,12.9-3.6,22.9-3.6
			c8.6,0,13.5,5,19.7,4.1c15.2-2.1,22-14.5,23.3-34.5c0.8-12.4,8.2-18.4,10.1-32.9C119.1,46,110.9,33.4,97.3,28.9z M102.1,93.4
			c0,18.5-6.8,28.6-19.9,29.9c-5.7,0.6-10-4.6-18.1-4.6c-10,0-15.6,5.2-22,4c-10.5-1.9-16-12.7-16-29.3L16.1,60.5
			c0-17.5,9.4-25.1,23.3-28.3c1.3-0.3,2.7-0.2,4.1,0.2c4.1,1,8.5,4,13.1,6.1c0,0,0.1,0,0.1,0c3.9,1,7.4,1.8,7.4,1.8s0.4,0,1-0.1
			c0.3,0,0.7-0.1,1.1-0.1c0.2,0,0.5-0.1,0.7-0.1c6.6-0.9,13.5-4.3,19.6-6c3.4-1,6.6-1.4,9.3-0.6c11.5,3.7,16.3,11.5,16.3,27
			L102.1,93.4z"/>
	</g>
	<g id="onion_1_">
		<g id="border_3_">
			<path class="st2" d="M64,29.3h-2.7c0,0-13.3,17.1-13.3,42.7c0,22.2,13.3,42.7,13.3,42.7H64c0,0-13.3-20.5-13.3-42.7
				C50.7,46.4,64,29.3,64,29.3z M50.7,40H48c0,0-10.7,14.4-10.7,32.3c0,19.4,8,34.4,8,34.4H48c0,0-8-15.1-8-34.6
				C40,54.3,50.7,40,50.7,40z M72,72c0-16.2-3-29.3-6.7-29.3c-3.7,0-6.7,13.1-6.7,29.3c0,16.2,3,29.3,6.7,29.3
				C69,101.3,72,88.2,72,72z M65.3,96c-0.7,0-4-10.7-4-24c0-13.3,3.3-24,4-24c0.7,0,4,10.7,4,24C69.3,85.3,66.1,96,65.3,96z
				 M37.3,45.3h-2.7c0,0-10.7,14.6-10.7,28.9c0,13.7,10.7,27.1,10.7,27.1h2.7c0,0-10.7-13.5-10.7-27.3
				C26.7,59.8,37.3,45.3,37.3,45.3z M69.3,29.3h-2.7c0,0,13.3,17.1,13.3,42.7c0,22.1-13.3,42.7-13.3,42.7h2.7
				c0,0,13.3-20.4,13.3-42.7C82.7,46.5,69.3,29.3,69.3,29.3z M93.3,45.3c0,0,10.7,14.5,10.7,28.7c0,13.7-10.7,27.3-10.7,27.3H96
				c0,0,10.7-13.4,10.7-27.1c0-14.3-10.7-28.9-10.7-28.9H93.3z M85.3,29.3c-9.9-7.2-8-26.7-8-26.7l-8,8l-2.7-8l-5.3,10.7L53.3,0
				c0,0,1.5,19.3-8,29.3C39.1,35.9,8,43.7,8,72c0,21,12.6,38.7,32.6,46.4c1.5,2.7,5.4,9.5,7.4,9.5c2.2,0,8-5.3,8-5.3s7.1,5.3,8,5.3
				c2.2,0,5.3-5.3,5.3-5.3s6.4,5.6,8,5.3c1.5-0.2,7.1-6.5,9.5-9.3C107.1,111,119.7,93.2,120,72C120.3,47.4,103.6,42.7,85.3,29.3z
				 M64,117.3c-28.2,0-50.7-21.2-50.7-45.3c0-25.1,32.6-33.3,37.3-40C58.1,21.6,57,12.9,57,12.9l4.3,5.8l5.3-8l2.7,5.3l2.7-2.7
				c0,0,2.6,14.6,10.7,21.3c10.3,8.6,32,12.9,32,37.3C114.7,96.1,92.2,117.3,64,117.3z M82.7,40H80c0,0,10.7,14.3,10.7,32.1
				c0,19.5-10.7,34.6-10.7,34.6h2.7c0,0,10.7-15,10.7-34.4C93.3,54.4,82.7,40,82.7,40z"/>
		</g>
	</g>
	<g id="tomato_1_" class="st0">
		<path id="shade_5_" class="st3" d="M64,39.3c10.6-0.2,63.7-16.9,64,32c0.2,27.3-28.7,49.4-64,49.4c0,0,41.6-16.4,41.6-43.7
			C105.6,36.1,64,39.3,64,39.3z"/>
		<path class="st4" d="M46.5,10.2c-8,5.9,11.6,20.4,11.6,20.4S54.6,4.3,46.5,10.2z M81.4,13.1C75.5,9,69.8,30.5,69.8,30.5h2.9
			C72.7,30.5,87.4,17.2,81.4,13.1z M81.9,35.3C90,30.3,96,23.5,96,18.9c0-7.4-13.4,11-28,14.1c-1,0.2,1.8-25.7,1.8-25.7H58.2
			c0,0,3.5,26.1,2.2,25.8c-15.2-2.8-31.3-21.6-31.3-14.2c0,4.2,4.3,10.3,10.8,15.2C21.5,31.4,0,34.5,0,71.3
			c0,27.3,28.7,49.4,64,49.4c35.3,0,64-22.1,64-49.4C128,30.1,101.3,31.2,81.9,35.3z M64,114.9c-26.5,0-58.2-17.6-58.2-43.6
			c0-48.4,43.7-26.2,58.2-26.2c11.6,0,58.2-24.4,58.2,26.2C122.2,97.7,90.5,114.9,64,114.9z"/>
	</g>
	<g id="potatos_1_" class="st0">
		<path id="shade_10_" class="st3" d="M64,0c10.3,11.3,23.4,15.1,32.9,31.9c8.1,14.5,18.6,29.6,18.6,46c0,35.3-23,50.1-51.5,50.1
			c14.4-15.8,28.7-20.6,28.7-55.9C92.7,36.7,81.8,19.7,64,0z"/>
		<path class="st4" d="M52.9,94.6c-2.3,0-4.2,1.9-4.2,4.2c0,2.3,1.9,4.2,4.2,4.2c2.3,0,4.2-1.9,4.2-4.2C57,96.5,55.2,94.6,52.9,94.6
			z M96.9,31.9C87.4,15.1,79.3,0,64,0C35.6,0,12.5,42.6,12.5,77.9c0,35.3,23,50.1,51.5,50.1s51.5-14.7,51.5-50.1
			C115.5,61.6,105,46.4,96.9,31.9z M64,122.4c-25.4,0-45.9-12.3-45.9-44.5C18.1,45.6,38.6,5.6,64,5.6c13.3,0,19.7,13.8,28.1,29
			c7.6,13.7,17.8,28,17.8,43.4C109.9,110.2,89.4,122.4,64,122.4z M36.2,44.5c-2.3,0-4.2,1.9-4.2,4.2c0,2.3,1.9,4.2,4.2,4.2
			c2.3,0,4.2-1.9,4.2-4.2C40.3,46.4,38.5,44.5,36.2,44.5z M55.6,75.1c-2.3,0-4.2,1.9-4.2,4.2c0,2.3,1.9,4.2,4.2,4.2
			c2.3,0,4.2-1.9,4.2-4.2C59.8,77,58,75.1,55.6,75.1z M33.4,66.8c-2.3,0-4.2,1.9-4.2,4.2c0,2.3,1.9,4.2,4.2,4.2s4.2-1.9,4.2-4.2
			C37.6,68.7,35.7,66.8,33.4,66.8z M52.9,30.6c2.3,0,4.2-1.9,4.2-4.2c0-2.3-1.9-4.2-4.2-4.2c-2.3,0-4.2,1.9-4.2,4.2
			C48.7,28.7,50.6,30.6,52.9,30.6z M75.1,58.4c-2.3,0-4.2,1.9-4.2,4.2c0,2.3,1.9,4.2,4.2,4.2s4.2-1.9,4.2-4.2
			C79.3,60.3,77.4,58.4,75.1,58.4z M75.1,36.2c-2.3,0-4.2,1.9-4.2,4.2c0,2.3,1.9,4.2,4.2,4.2s4.2-1.9,4.2-4.2
			C79.3,38,77.4,36.2,75.1,36.2z M75.1,86.3c-2.3,0-4.2,1.9-4.2,4.2c0,2.3,1.9,4.2,4.2,4.2s4.2-1.9,4.2-4.2
			C79.3,88.1,77.4,86.3,75.1,86.3z M55.6,47.3c-2.3,0-4.2,1.9-4.2,4.2c0,2.3,1.9,4.2,4.2,4.2c2.3,0,4.2-1.9,4.2-4.2
			C59.8,49.2,58,47.3,55.6,47.3z M33.4,86.3c-2.3,0-4.2,1.9-4.2,4.2c0,2.3,1.9,4.2,4.2,4.2s4.2-1.9,4.2-4.2
			C37.6,88.1,35.7,86.3,33.4,86.3z"/>
	</g>
</g>
<g id="row1_1_" class="st0">
	<g id="Aubergine_1_" class="st1">
		<path id="shade_6_" class="st5" d="M88.1,14.5c22.7,8.6,21.7,46.2,9,79c-12.6,32.8-28.7,39.6-51.4,31c-2.5-1,28.3-7.2,40.9-40
			C99.4,51.7,86.3,13.7,88.1,14.5z"/>
		<g id="border_6_">
			<path class="st2" d="M88.1,14.5c-22.7-8.6-49.4,19.4-62,52.2c-12.6,32.8-3,49.3,19.7,57.8c22.7,8.6,41,2.6,53.6-30.2
				C112,61.5,110.8,23,88.1,14.5z M95,92.6c-11.7,30.4-27.2,35.1-47.5,27.5c-20.2-7.6-28.7-21.4-17-51.8
				c11.7-30.4,35.7-57.1,55.9-49.5C106.7,26.5,106.7,62.2,95,92.6z"/>
		</g>
		<path id="tip_1_" class="st5" d="M92.4,0l6.7,2.5c0,0-4.9,13.4-3.9,14c8.8,5.6,10.8,15.7,12.2,30.4c0.6,5.7-4.9,14.4-8.2,14.6
			c-3.2,0.2-2.7-17.6-6-17.4C88.7,44.5,85.4,59,80.7,57c-2.9-1.3-3.3-16.4-6-17.4c-5.2-1.9-15.3,12.1-17.6,6c-1-2.8,3.9-10.2,2-11.8
			c-2-1.8-12.1,5.4-14.5,4.6c-2.4-0.8,4-10.6,11.2-15.9C69.7,12.2,78,12.5,85.1,12.4C86.4,12.3,92.4,0,92.4,0z"/>
	</g>
	<g id="garlic_1_" class="st1">
		<path class="st5" d="M85.4,43.8C76,32.2,75.1,14.4,75.1,14.4l-7-3.3c0,0-3.5,15,8.4,36.1c7.7,13.7,18.5,23.2,22.2,36.1
			c5.5,19.2-11.1,27.8-11.1,27.8s25.4,9.7,31.6-11.2C129,67,94.8,55.3,85.4,43.8z M105.6,97.1c-0.7,0-1.4-0.6-1.4-1.4
			c0,0,2.8-3.1,2.8-6.3c0-3.7-2.8-7.6-2.8-7.6c0-0.7,0.6-1.4,1.4-1.4c0.8,0,4.2,5.3,4.2,9C109.8,92.7,106.3,97.1,105.6,97.1z"/>
		<g id="border_7_">
			<path class="st2" d="M26.5,81.9c0-0.7-0.6-1.4-1.4-1.4c-0.7,0-4.2,5.3-4.2,9c0,3.2,3.4,7.7,4.2,7.7c0.8,0,1.4-0.6,1.4-1.4
				c0,0-2.8-3.1-2.8-6.3C23.7,85.8,26.5,81.9,26.5,81.9z M51.5,84.6c0-0.7-0.6-1.4-1.4-1.4c-0.7,0-4.2,5.3-4.2,9
				c0,3.2,3.4,7.7,4.2,7.7c0.8,0,1.4-0.6,1.4-1.4c0,0-2.8-3.1-2.8-6.3C48.7,88.6,51.5,84.6,51.5,84.6z M89,81
				c-3.4-10.1-12.4-22.8-12.4-22.8h-2.9c0,0,9.4,13.6,13,24.2c3.4,10.2-1.9,25.7-1.9,25.7l0.1,0l2.4,1.9c0,0,0.2-0.6,0.4-1.5
				C88.8,104.1,92,89.9,89,81z M75.1,72.2c-0.8,0-1.4,0.6-1.4,1.4c0,0,2.8,3.9,2.8,7.6c0,3.2-2.8,6.3-2.8,6.3c0,0.8,0.6,1.4,1.4,1.4
				c0.7,0,4.1-4.4,4.1-7.7C79.2,77.5,75.8,72.2,75.1,72.2z M89,81c-3.4-10.1-12.4-22.8-12.4-22.8h-2.9c0,0,9.4,13.6,13,24.2
				c3.4,10.2-1.9,25.7-1.9,25.7l0.1,0c0.2,0,1.3,0.2,2.8,0.4C88.8,104.1,92,89.9,89,81z M75.1,72.2c-0.8,0-1.4,0.6-1.4,1.4
				c0,0,2.8,3.9,2.8,7.6c0,3.2-2.8,6.3-2.8,6.3c0,0.8,0.6,1.4,1.4,1.4c0.7,0,4.1-4.4,4.1-7.7C79.2,77.5,75.8,72.2,75.1,72.2z
				 M61.2,52.7c-0.7,0-1.4,0.6-1.4,1.4c0,0,2.8,3.9,2.8,7.6c0,3.2-2.8,6.3-2.8,6.3c0,0.8,0.6,1.4,1.4,1.4c0.8,0,4.2-4.4,4.2-7.7
				C65.4,58,61.9,52.7,61.2,52.7z M51.5,84.6c0-0.7-0.6-1.4-1.4-1.4c-0.7,0-4.2,5.3-4.2,9c0,3.2,3.4,7.7,4.2,7.7
				c0.8,0,1.4-0.6,1.4-1.4c0,0-2.8-3.1-2.8-6.3C48.7,88.6,51.5,84.6,51.5,84.6z M26.5,81.9c0-0.7-0.6-1.4-1.4-1.4
				c-0.7,0-4.2,5.3-4.2,9c0,3.2,3.4,7.7,4.2,7.7c0.8,0,1.4-0.6,1.4-1.4c0,0-2.8-3.1-2.8-6.3C23.7,85.8,26.5,81.9,26.5,81.9z M89,81
				c-3.4-10.1-12.4-22.8-12.4-22.8h-2.9c0,0,9.4,13.6,13,24.2c3.4,10.2-1.9,25.7-1.9,25.7l0.1,0l2.4,1.9c0,0,0.2-0.6,0.4-1.5
				C88.8,104.1,92,89.9,89,81z M75.1,72.2c-0.8,0-1.4,0.6-1.4,1.4c0,0,2.8,3.9,2.8,7.6c0,3.2-2.8,6.3-2.8,6.3c0,0.8,0.6,1.4,1.4,1.4
				c0.7,0,4.1-4.4,4.1-7.7C79.2,77.5,75.8,72.2,75.1,72.2z M61.2,52.7c-0.7,0-1.4,0.6-1.4,1.4c0,0,2.8,3.9,2.8,7.6
				c0,3.2-2.8,6.3-2.8,6.3c0,0.8,0.6,1.4,1.4,1.4c0.8,0,4.2-4.4,4.2-7.7C65.4,58,61.9,52.7,61.2,52.7z M51.5,84.6
				c0-0.7-0.6-1.4-1.4-1.4c-0.7,0-4.2,5.3-4.2,9c0,3.2,3.4,7.7,4.2,7.7c0.8,0,1.4-0.6,1.4-1.4c0,0-2.8-3.1-2.8-6.3
				C48.7,88.6,51.5,84.6,51.5,84.6z M38.8,85.3c3.5-10.6,9.9-21.5,9.9-21.5h-2.8c0,0-6.1,9.9-9.4,20c-3.6,10.7,2.6,24.8,2.6,24.8
				h2.8C41.9,108.6,35.4,95.5,38.8,85.3z M26.5,81.9c0-0.7-0.6-1.4-1.4-1.4c-0.7,0-4.2,5.3-4.2,9c0,3.2,3.4,7.7,4.2,7.7
				c0.8,0,1.4-0.6,1.4-1.4c0,0-2.8-3.1-2.8-6.3C23.7,85.8,26.5,81.9,26.5,81.9z M61.2,52.7c-0.7,0-1.4,0.6-1.4,1.4
				c0,0,2.8,3.9,2.8,7.6c0,3.2-2.8,6.3-2.8,6.3c0,0.8,0.6,1.4,1.4,1.4c0.8,0,4.2-4.4,4.2-7.7C65.4,58,61.9,52.7,61.2,52.7z"/>
			<path class="st2" d="M85.4,43.8C76,32.2,75.1,11.6,75.1,11.6L55.4,0c0,0,6.9,32.8-7.5,45.7C33.6,58.6-0.4,72,8.5,98.9
				c6.9,20.6,34.6,14.9,34.6,14.9s2.2,1.5,5.5,3.3l-0.9,10.1l5.5,0.8l0.9-8.4c0.9,0.4,1.9,0.7,2.8,1v7h5.6v-5.6l-0.6-0.3
				c1.1,0.2,2.2,0.3,3.4,0.3v5.6h5.5v-6.2c1-0.2,2-0.5,2.9-0.8l0.8,7.3l5.5-0.8l-0.8-8.7c4.8-2.3,8.2-4.7,8.2-4.7s25.5,7,31.6-13.9
				C128.5,68.3,94.8,55.3,85.4,43.8z M87.6,108.7c-0.2,0.9-0.4,1.5-0.4,1.5l-2.4-1.9l-0.1,0c0,0-9,8.3-19.4,8.3
				c-10.4,0-22.2-8.3-22.2-8.3s-31.1,3.4-30.6-19.4C13.1,68.7,50.9,58.1,57,41.6c4.7-12.7,5.6-30.5,5.6-30.5l8.3,5.6
				c0,0,1.9,18.2,8.3,27.8c8.5,12.5,35.8,24.5,36.1,44.4C115.6,110.3,95.3,109.7,87.6,108.7z"/>
		</g>
	</g>
	<g id="chilli_1_" class="st1">
		<path class="st5" d="M88.2,53.9c0,0.3,0,0.6,0,0.9c-0.2,1.7-0.4,3.3-0.7,4.9c-2,10.6-7,20.3-10.9,27.4
			C59.5,118.6,22.4,128,22.4,128s6.1-3.2,14.3-10.1c8.6-7.3,19.6-18.6,28.3-34.7c8-14.9,12.1-25.7,14.1-33c0.4-1.5,0.7-2.9,1-4.1
			c0.9,0.1,1.9,0.1,2.3,0.6c0.9,1-0.1,3.7,0.5,4.5c0.9,1.2,2.1-1.4,3.3-0.9c1.6,0.8,1.8,4.5,1.8,4.5C87.9,54.7,88,54.4,88.2,53.9z"
			/>
		<g id="Border">
			<path class="st2" d="M88.2,53.9c-0.2,0.5-0.3,0.8-0.3,0.9c0,0-0.2-3.7-1.8-4.5c-1.2-0.6-2.4,2.1-3.3,0.9
				c-0.6-0.8,0.4-3.5-0.5-4.5c-0.5-0.5-1.4-0.6-2.3-0.6c-0.9,0-1.9-0.1-2.2-0.5c-1.5-1.7,1.1-2.9-0.3-4.7c-0.1-0.1-0.2-0.2-0.4-0.4
				c0,0,0-0.1-0.1-0.1c-2-1.7-5.6-1.3-8.5-1.4L79,50.1l4.8,5.1c0,0-4.5,24.8-18.7,42c-8.7,10.6-20.8,17.3-28.5,20.7
				c-4.2,1.9-7,2.8-7.4,2.9c0.5-1,11.3-22.2,17.4-39.8c5.2-15,5-25.7,9.7-36c1.9-4.2,5.7-6.3,8.1-7.3c-1-1.2-1.2-3.2-1.1-4.6
				C45.8,41.6,51.1,56.3,45,74.4C33,109.6,22.4,128,22.4,128s37.1-9.4,54.1-40.9c3.9-7.1,8.8-16.8,10.9-27.4
				c0.3-1.6,0.6-3.3,0.7-4.9C88.2,54.5,88.2,54.1,88.2,53.9C88.2,53.9,88.2,53.9,88.2,53.9z"/>
		</g>
		<path class="st5" d="M104.3,10.4c-1.9,6.1-8.2,13.5-11.6,20.5C90,36.3,92,39.1,91.5,43c-0.3,2.8-2.5,8.6-3.3,10.8v0c0,0,0,0,0,0
			c-0.2,0.5-0.3,0.8-0.3,0.9c0,0-0.2-3.7-1.8-4.5c-1.2-0.6-2.4,2.1-3.3,0.9c-0.6-0.8,0.4-3.5-0.5-4.5c-0.5-0.5-1.4-0.6-2.3-0.6
			c-0.9,0-1.9-0.1-2.2-0.5c-1.5-1.7,1.1-2.9-0.3-4.7c0-0.1-0.1-0.1-0.2-0.2c0-0.1-0.1-0.1-0.2-0.1c0,0,0-0.1-0.1-0.1
			c-2-1.7-5.6-1.3-8.5-1.4c-1.2-0.1-2.4-0.2-3.2-0.7c-0.3-0.1-0.5-0.3-0.7-0.6c-1-1.2-1.2-3.2-1.1-4.6c0-0.8,0.1-1.4,0-1.4
			c0,0,3.8-4.4,9.9-6.5c4.8-1.7,15.4-1.9,19.4-5.1c9.5-7.8,11.6-20,11.6-20S107.2,1.4,104.3,10.4z"/>
	</g>
	<g id="carrot_1_" class="st1">
		<path id="shade_9_" class="st5" d="M74.7,40.5c15.1,13.2,29.7,12.5,9.6,45.8c-22,36.3-62.5,37.2-62.5,37.2s15.4-3,42.4-34.3
			C73.9,78,84.5,49.1,74.7,40.5z"/>
		<g id="border_8_">
			<g>
				<path class="st2" d="M74.7,40.5C57.6,30.1,49.9,19.4,29.6,53c-22,36.3-8.2,75-8.2,75s40.9-5.3,62.9-41.7
					C104.4,53,91.8,50.9,74.7,40.5z M80.6,84.1c-3.3,5.4-6.9,10-10.6,14c-2.6-0.9-7.8-2.8-12.3-5.5c-6.3-3.8-11.4-9.5-11.4-9.5
					L44,86.8c0,0,4.9,5.5,11.1,9.3c4.1,2.5,8.7,4.3,11.6,5.3c-3.6,3.4-7.3,6.3-10.9,8.7c-1.3-0.1-3.6-0.8-7-2.9
					c-6.3-3.8-8.9-5.4-8.9-5.4l-2.2,3.6c0,0,2.4,1.5,8.6,5.2c1.9,1.2,3.5,1.9,4.7,2.4c-14.2,8.1-26.3,9.5-26.3,9.5
					S15.2,97,27.1,67.5c1.1,1.1,2.6,2.3,4.7,3.5c6.5,4,12.6,5.2,12.6,5.2l2.2-3.6c0,0-5.8-1.1-12.3-5c-2.5-1.5-4.2-3-5.4-4.2
					c1.3-2.7,2.7-5.4,4.3-8.1c0.7-1.2,1.4-2.3,2.1-3.3c2,1.9,5.1,4.6,8.6,6.7c6.5,4,14.4,6.3,14.4,6.3l2.2-3.6c0,0-7.6-2.2-14.1-6.1
					c-3.5-2.1-6.6-4.8-8.7-6.8c14.8-21.4,21-12.6,34.8-4.2C87.6,53.4,98.6,54.3,80.6,84.1z"/>
			</g>
		</g>
		<g id="roots">
			<g>
				<path class="st2" d="M110.1,19.1c-1.4-1.9-4-2.4-5.9-1L84,33.4l12.1-19.9c1.2-2,0.6-4.6-1.4-5.9c-2-1.2-4.6-0.6-5.9,1.4
					l-12.2,20l4.1-24.4c0.4-2.3-1.2-4.5-3.4-4.8c-2.3-0.3-4.4,1.4-4.8,3.8l-5.1,32.3l3.6,2.2l0,0l3.7,2.2l6.5,4.3l27.9-19.7
					C111,23.7,111.5,21.1,110.1,19.1z"/>
			</g>
		</g>
	</g>
	<g id="beet_1_" class="st1">
		<path id="bg" class="st5" d="M76,36.5c15.6,0,25.3,6.6,29.3,22.3c6.5,24-6.6,45.2-18.5,48.3C95.9,96.7,102.1,36.5,76,36.5z"/>
		<g id="border_9_">
			<path class="st2" d="M42.5,80c0.1,0.5,9.2,2.7,19.1,0.1c9.9-2.5,16.8-8.8,16.7-9.3c-0.1-0.5-7.3,4.9-17.2,7.4
				C51.3,80.8,42.4,79.5,42.5,80z M62.7,56.7c-0.1-0.5-7.3,4.9-17.1,7.4c-9.9,2.5-18.7,1.3-18.6,1.8C27,66.5,36.1,68.6,46,66
				C55.9,63.5,62.8,57.2,62.7,56.7z M109.1,57.8c-6.4-25-28.9-28.8-53.9-22.3c-24.9,6.4-42.9,20.6-36.5,45.6
				c4.7,18.2,19.4,31.2,36.8,34.4C62,116.7,78.9,128,78.9,128s8.3-17.5,13.1-21.1C106.5,95.8,113.9,76.7,109.1,57.8z M90.1,103.4
				c-4.5,3.5-12.7,19-12.7,19s-16.5-9.6-22.9-11c-15.1-3.4-27.9-15.1-32-31.2c-5.9-22.9,10.8-35,33.7-40.9
				c22.9-5.9,43.3-3.4,49.1,19.5C109.7,75.9,103.2,93.2,90.1,103.4z M76,85.5c-0.1-0.5-7.3,4.9-17.1,7.4c-9.9,2.5-18.7,1.3-18.6,1.8
				c0.1,0.5,9.2,2.7,19.1,0.1C69.2,92.2,76.2,86,76,85.5z M73.6,103.2c-9.9,2.5-18.7,1.3-18.6,1.8c0.1,0.5,9.2,2.7,19.1,0.1
				c9.9-2.5,16.8-8.8,16.7-9.3C90.6,95.3,83.4,100.7,73.6,103.2z"/>
		</g>
		<g id="leaf_3_">
			<path class="st2" d="M76.4,4.7l-7.5-1.9c0,0-5.2,6.3-7.8,16.7c-0.3,1.2-0.6,2.5-0.9,3.8c-2.5-11.1,0-23.3,0-23.3l-7.5,1.9
				c0,0-2.8,12.7,0.1,23.9C54.4,32.4,47,3.4,47,3.4l-7.5,1.9l5.7,22.3c-0.2-0.5-0.4-1-0.7-1.5C40,15.9,31,11.2,31,11.2l-7.1,3.1
				c0,0,9.4,5.4,14.1,16.1c4.7,10.7,9.5,21.5,9.5,21.5L68,46.3c0,0-1.2-2.6-2.7-6.7c0.5-4.8,1.4-11,2.9-16.8
				C70.9,11.9,76.4,4.7,76.4,4.7z M58.5,48.4L58,46.5h0C58.3,47.5,58.4,48.1,58.5,48.4z"/>
		</g>
	</g>
</g>
</svg>
